# Blender v2.79 (sub 0) OBJ File: ''
# www.blender.org
mtllib Rock.mtl
o Cube
v -1.689036 -0.553571 0.950525
v -1.710769 1.128873 1.323509
v -1.689036 -0.553571 -0.761632
v -1.689036 1.124109 -0.761632
v 1.000000 -1.000000 1.112479
v 1.232536 1.111882 1.306779
v 1.000000 -1.000000 -1.000000
v 1.323620 1.124109 -1.538854
v -2.018750 -0.724743 0.000000
v -2.042405 0.208061 1.569175
v -2.018750 1.124109 0.000000
v -2.018750 0.208061 -0.932805
v 0.000000 -1.224745 -1.224745
v 0.000000 1.124109 -1.224745
v 1.224745 0.000000 -1.224745
v 1.224745 -1.224745 0.000000
v 1.767066 1.124109 0.254746
v 1.224745 0.000000 1.265176
v 0.000000 -1.224745 1.265176
v -0.004328 1.124109 1.513060
v 0.000000 1.452886 0.000000
v 0.000000 -1.732051 0.000000
v 0.088551 0.000000 1.851911
v 1.732051 0.000000 0.000000
v 0.000000 0.000000 -1.732051
v -2.762997 0.208061 0.000000
vt 0.680972 0.045690
vt 0.678432 0.049832
vt 0.674378 0.051633
vt 0.674318 0.047668
vt 0.661501 0.047383
vt 0.664526 0.051730
vt 0.656960 0.051677
vt 0.657034 0.045215
vt 0.691741 0.055088
vt 0.695178 0.049653
vt 0.699588 0.052217
vt 0.697366 0.058040
vt 0.695517 0.037595
vt 0.697904 0.031563
vt 0.707253 0.034880
vt 0.707543 0.040626
vt 0.702573 0.024958
vt 0.709581 0.028840
vt 0.705652 0.034187
vt 0.699708 0.032198
vt 0.679013 0.031825
vt 0.666896 0.030472
vt 0.669392 0.023112
vt 0.679730 0.023183
vt 0.689751 0.031578
vt 0.687056 0.025200
vt 0.686212 0.041534
vt 0.678419 0.038842
vt 0.668504 0.035051
vt 0.692810 0.022971
vt 0.692208 0.028626
vt 0.672267 0.043135
vt 0.661570 0.039832
vt 0.664820 0.034010
vt 0.676105 0.040466
vt 0.706315 0.020338
vt 0.711257 0.024125
vt 0.692968 0.044013
vt 0.703406 0.043650
vt 0.687661 0.040701
vt 0.688546 0.034969
vt 0.690747 0.029014
vt 0.688447 0.061795
vt 0.694278 0.063111
vt 0.683035 0.058508
vt 0.684113 0.052615
vt 0.684663 0.045916
vt 0.679252 0.059599
vt 0.678737 0.051982
vt 0.677702 0.038588
vt 0.682378 0.041040
vt 0.667532 0.021519
vt 0.662439 0.030005
vn -0.9958 -0.0368 -0.0834
vn -0.5765 0.8133 -0.0789
vn -0.3941 0.7242 -0.5658
vn -0.6409 0.0046 -0.7676
vn -0.0734 -0.0825 -0.9939
vn -0.0642 0.7371 -0.6727
vn 0.5135 0.5326 -0.6727
vn 0.6719 -0.1752 -0.7196
vn 0.9796 -0.2010 0.0001
vn 0.8152 0.5716 0.0925
vn 0.5404 0.5713 0.6177
vn 0.6933 -0.1589 0.7029
vn 0.0833 -0.1326 0.9876
vn 0.0667 0.7136 0.6973
vn -0.3913 0.7323 0.5572
vn -0.6219 -0.0483 0.7815
vn -0.0519 -0.9985 -0.0142
vn 0.7071 -0.7071 -0.0095
vn 0.5810 -0.5810 0.5700
vn -0.0068 -0.7620 0.6475
vn 0.0023 0.9999 -0.0126
vn -0.6503 -0.7577 -0.0545
vn -0.4959 -0.6936 0.5225
vn -0.5176 -0.5945 -0.6153
vn -0.0367 -0.7108 -0.7024
vn 0.5773 -0.5773 -0.5773
usemtl None
s 1
f 26/1/1 11/2/2 4/3/3 12/4/4
f 25/5/5 14/6/6 8/7/7 15/8/8
f 24/9/9 17/10/10 6/11/11 18/12/12
f 23/13/13 20/14/14 2/15/15 10/16/16
f 22/17/17 16/18/18 5/19/19 19/20/20
f 21/21/21 11/22/2 2/23/15 20/24/14
f 17/25/10 21/21/21 20/24/14 6/26/11
f 8/27/7 14/28/6 21/21/21 17/25/10
f 14/28/6 4/29/3 11/22/2 21/21/21
f 9/30/22 22/17/17 19/20/20 1/31/23
f 3/32/24 13/33/25 22/34/17 9/35/22
f 13/36/25 7/37/26 16/18/18 22/17/17
f 19/38/20 23/13/13 10/16/16 1/39/23
f 5/40/19 18/41/12 23/13/13 19/38/20
f 18/41/12 6/42/11 20/14/14 23/13/13
f 16/43/18 24/9/9 18/12/12 5/44/19
f 7/45/26 15/46/8 24/9/9 16/43/18
f 15/46/8 8/47/7 17/10/10 24/9/9
f 13/48/25 25/49/5 15/46/8 7/45/26
f 3/32/24 12/4/4 25/5/5 13/33/25
f 12/4/4 4/3/3 14/6/6 25/5/5
f 9/35/22 26/1/1 12/4/4 3/32/24
f 1/50/23 10/51/16 26/1/1 9/35/22
f 10/52/16 2/23/15 11/22/2 26/53/1
